<?xml version="1.0" standalone="no"?>
<!DOCTYPE svg PUBLIC "-//W3C//DTD SVG 20010904//EN"
 "http://www.w3.org/TR/2001/REC-SVG-20010904/DTD/svg10.dtd">
<svg version="1.0" xmlns="http://www.w3.org/2000/svg"
 width="16.000000pt" height="16.000000pt" viewBox="0 0 16.000000 16.000000"
 preserveAspectRatio="xMidYMid meet">
<metadata>
Created by potrace 1.11, written by Peter Selinger 2001-2013
</metadata>
<g transform="translate(0.000000,16.000000) scale(0.002286,-0.002286)"
fill="#000000" stroke="none">
<path d="M2115 4944 c-22 -3 -229 -8 -460 -12 l-420 -7 0 -130 0 -129 110 -18
c61 -9 116 -17 123 -17 9 -1 12 -196 12 -941 0 -884 -1 -940 -17 -948 -10 -5
-66 -22 -125 -38 l-108 -29 0 -111 0 -111 423 -9 c690 -15 849 -10 1062 32
278 56 471 179 564 361 46 91 65 189 66 333 0 151 -10 196 -73 310 -43 78
-147 185 -222 227 -68 39 -168 73 -213 73 -52 0 -52 12 -1 32 206 81 344 297
344 539 0 299 -175 489 -525 569 -71 17 -133 22 -295 24 -113 2 -223 2 -245 0z
m216 -249 c115 -12 231 -91 271 -184 47 -109 46 -336 -1 -460 -59 -157 -203
-220 -461 -202 l-95 6 -3 409 c-1 235 2 414 7 419 10 10 140 24 191 20 19 -1
60 -5 91 -8z m209 -1127 c150 -74 212 -193 211 -408 0 -174 -49 -320 -134
-397 -66 -60 -138 -86 -245 -91 -97 -5 -269 12 -309 31 l-23 10 0 438 0 438
33 4 c17 3 118 4 222 3 185 -1 191 -2 245 -28z"/>
<path d="M4478 4945 c-5 -5 -209 -11 -455 -14 l-448 -6 0 -130 0 -130 110 -17
c61 -9 111 -17 113 -17 1 -1 1 -427 0 -948 l-3 -948 -112 -30 -113 -30 0 -111
0 -111 493 -8 c270 -5 542 -7 602 -6 471 9 859 228 1063 601 95 174 143 348
163 582 23 278 -23 562 -124 763 -145 291 -413 471 -802 541 -97 17 -475 32
-487 19z m334 -278 c288 -94 438 -346 479 -807 15 -167 6 -401 -20 -530 -62
-309 -213 -540 -401 -611 -122 -46 -344 -47 -458 -3 l-42 17 0 957 0 958 28
11 c60 24 113 30 237 26 78 -2 148 -9 177 -18z"/>
</g>
</svg>
